<svg width="2047" height="215" viewBox="0 0 2047 215" fill="none" xmlns="http://www.w3.org/2000/svg">
<g clip-path="url(#clip0_232_4224)">
<path d="M2.7993 215.7L51.8923 234.83M51.8923 234.83L197.715 291.652M51.8923 234.83L24.4819 244.306M51.8923 234.83L199.657 183.746M197.715 291.652L343.537 348.475M197.715 291.652L170.304 301.128M197.715 291.652L345.479 240.568M343.537 348.475L393.358 367.888M343.537 348.475L316.126 357.951M343.537 348.475L491.301 297.391M150.564 164.616L199.657 183.746M199.657 183.746L345.479 240.568M199.657 183.746L347.422 132.661M345.479 240.568L491.301 297.391M345.479 240.568L493.244 189.484M491.301 297.391L541.123 316.804M491.301 297.391L639.066 246.306M298.329 113.531L347.422 132.661M347.422 132.661L493.244 189.484M347.422 132.661L495.187 81.5774M493.244 189.484L639.066 246.306M493.244 189.484L641.009 138.4M639.066 246.306L688.888 265.72M639.066 246.306L786.831 195.222M361.24 30.2274L495.187 81.5774M495.187 81.5774L641.009 138.4M495.187 81.5774L642.951 30.4934M641.009 138.4L786.831 195.222M641.009 138.4L788.774 87.3158M786.831 195.222L836.652 214.636M786.831 195.222L934.596 144.138M593.858 11.3633L642.951 30.4934M642.951 30.4934L788.774 87.3158M642.951 30.4934L660.166 24.5421M788.774 87.3158L934.596 144.138M788.774 87.3158L805.988 81.3646M934.596 144.138L984.417 163.552M934.596 144.138L951.81 138.187" stroke="#DFDFFF" stroke-opacity="0.8"/>
<path d="M2044.42 215.7L1995.32 234.83M1995.32 234.83L1849.5 291.652M1995.32 234.83L2022.73 244.306M1995.32 234.83L1847.56 183.746M1849.5 291.652L1703.68 348.475M1849.5 291.652L1876.91 301.128M1849.5 291.652L1701.74 240.568M1703.68 348.475L1653.86 367.888M1703.68 348.475L1731.09 357.951M1703.68 348.475L1555.91 297.391M1896.65 164.616L1847.56 183.746M1847.56 183.746L1701.74 240.568M1847.56 183.746L1699.79 132.661M1701.74 240.568L1555.91 297.391M1701.74 240.568L1553.97 189.484M1555.91 297.391L1506.09 316.804M1555.91 297.391L1408.15 246.306M1748.89 113.531L1699.79 132.661M1699.79 132.661L1553.97 189.484M1699.79 132.661L1552.03 81.5774M1553.97 189.484L1408.15 246.306M1553.97 189.484L1406.21 138.4M1408.15 246.306L1358.33 265.72M1408.15 246.306L1260.38 195.222M1685.98 30.2274L1552.03 81.5774M1552.03 81.5774L1406.21 138.4M1552.03 81.5774L1404.26 30.4934M1406.21 138.4L1260.38 195.222M1406.21 138.4L1258.44 87.3158M1260.38 195.222L1210.56 214.636M1260.38 195.222L1112.62 144.138M1453.36 11.3633L1404.26 30.4934M1404.26 30.4934L1258.44 87.3158M1404.26 30.4934L1387.05 24.5421M1258.44 87.3158L1112.62 144.138M1258.44 87.3158L1241.23 81.3646M1112.62 144.138L1062.8 163.552M1112.62 144.138L1095.41 138.187" stroke="#DFDFFF" stroke-opacity="0.8"/>
</g>
<defs>
<clipPath id="clip0_232_4224">
<rect width="2047" height="215" fill="white"/>
</clipPath>
</defs>
</svg>
