<svg width="150" height="316" viewBox="0 0 150 316" fill="none" xmlns="http://www.w3.org/2000/svg">
<rect x="1.41307" y="91.5789" width="19.37" height="48.2214" rx="9.68502" transform="rotate(-47.3045 1.41307 91.5789)" stroke="#DFDFFF" stroke-width="2"/>
<circle cx="98.3848" cy="308.5" r="7.5" fill="#7E7EE2"/>
<circle cx="62.3848" cy="186.5" r="10.5" fill="#DFDFFF"/>
<path d="M104.558 122.84C105.717 122.003 107.234 121.848 108.537 122.433L117.664 126.527C118.968 127.112 119.861 128.348 120.006 129.77L121.023 139.72C121.169 141.142 120.545 142.533 119.386 143.37L111.277 149.227C110.119 150.063 108.602 150.218 107.298 149.633L98.1717 145.539C96.8678 144.954 95.975 143.718 95.8296 142.297L94.8121 132.346C94.6667 130.924 95.2909 129.533 96.4494 128.696L104.558 122.84Z" fill="#7E7EE2"/>
<path d="M128.239 221.269C129.719 220.844 131.105 222.179 130.734 223.673L121.848 259.467C121.477 260.961 119.628 261.493 118.519 260.425L91.9639 234.833C90.8553 233.765 91.319 231.897 92.7985 231.471L128.239 221.269Z" fill="#7E7EE2"/>
<circle cx="59.6662" cy="31.058" r="10.3637" transform="rotate(14.0464 59.6662 31.058)" stroke="#DFDFFF" stroke-width="2"/>
<circle cx="85.424" cy="13.7819" r="10.3637" transform="rotate(14.0464 85.424 13.7819)" stroke="#DFDFFF" stroke-width="2"/>
<path d="M75.5109 12.1137C75.5219 11.8931 75.352 11.7053 75.1313 11.6942C74.9107 11.6832 74.7229 11.8531 74.7119 12.0738L75.5109 12.1137ZM64.643 20.531L63.0669 20.3352L62.9683 21.1291L64.5444 21.3249L64.643 20.531ZM74.7119 12.0738C74.4514 17.2834 69.8194 21.174 64.643 20.531L64.5444 21.3249C70.1822 22.0253 75.2272 17.7878 75.5109 12.1137L74.7119 12.0738Z" fill="#DFDFFF"/>
<path d="M69.6737 32.2303C69.6627 32.4509 69.8326 32.6387 70.0532 32.6497C70.2739 32.6608 70.4617 32.4909 70.4727 32.2702L69.6737 32.2303ZM80.5416 23.813L82.1177 24.0088L82.2163 23.2149L80.6402 23.0191L80.5416 23.813ZM70.4727 32.2702C70.7332 27.0606 75.3652 23.17 80.5416 23.813L80.6402 23.0191C75.0024 22.3187 69.9574 26.5562 69.6737 32.2303L70.4727 32.2702Z" fill="#DFDFFF"/>
</svg>
