<svg width="144" height="308" viewBox="0 0 144 308" fill="none" xmlns="http://www.w3.org/2000/svg">
<rect x="32.5693" width="24.0002" height="24.0002" rx="4" transform="rotate(18.0721 32.5693 0)" fill="#7E7EE2"/>
<rect x="125.764" y="5.16113" width="20.3664" height="47.8629" rx="10.1832" transform="rotate(30.1192 125.764 5.16113)" fill="#DFDFFF"/>
<rect x="7.97821" y="126.025" width="42.4871" height="20.8059" rx="3" transform="rotate(-29.679 7.97821 126.025)" stroke="#DFDFFF" stroke-width="2"/>
<circle cx="80" cy="177.19" r="7" fill="#DFDFFF"/>
<path d="M55.7389 220.499C57.3779 219.117 59.6294 218.715 61.6454 219.443L73.7644 223.823C75.7804 224.552 77.2545 226.301 77.6315 228.411L79.8978 241.096C80.2748 243.207 79.4974 245.358 77.8584 246.739L68.0056 255.045C66.3667 256.426 64.1151 256.828 62.0992 256.1L49.9801 251.72C47.9641 250.991 46.49 249.242 46.113 247.132L43.8467 234.447C43.4697 232.337 44.2471 230.186 45.8861 228.804L55.7389 220.499Z" fill="#7E7EE2"/>
<circle cx="11" cy="296.19" r="8" stroke="#DFDFFF" stroke-width="6"/>
</svg>
