<svg width="48" height="43" viewBox="0 0 48 43" fill="none" xmlns="http://www.w3.org/2000/svg">
<g clip-path="url(#clip0_14_4145)">
<path d="M9.65007 5.82349V12.0967H0.351562C0.351562 12.0967 0.482466 5.85162 9.65007 5.82349Z" fill="#7E7EE2"/>
<path d="M8.67061 17.5377V12.876H1.81177C1.80781 12.876 3.66036 17.4653 8.67061 17.5377Z" fill="#7E7EE2"/>
<path d="M12.9273 5.6145L9.65063 5.82348V8.96207L12.9273 5.97618V5.6145Z" fill="#7E7EE2"/>
<path d="M26.8287 42.896C38.4404 42.896 47.8535 33.3601 47.8535 21.5969C47.8535 9.83377 38.4404 0.297852 26.8287 0.297852C15.2171 0.297852 5.80396 9.83377 5.80396 21.5969C5.80396 33.3601 15.2171 42.896 26.8287 42.896Z" fill="#272443"/>
<path d="M37.6776 21.7938L26.5226 14.6084C26.5226 14.6084 24.7454 18.7999 28.4981 21.842C33.1077 25.5834 37.6776 21.7938 37.6776 21.7938Z" fill="#FCFCFE"/>
<path d="M7.95215 12.0964C7.95215 12.0964 33.1105 14.9819 45.0867 11.0315C45.0867 11.0315 43.4523 7.67187 39.771 4.81056C38.7237 3.99477 12.9307 5.61832 12.9307 5.61832C12.9307 5.61832 9.50719 7.91299 7.95215 12.0964Z" fill="#7E7EE2"/>
</g>
<defs>
<clipPath id="clip0_14_4145">
<rect width="48" height="43" fill="white"/>
</clipPath>
</defs>
</svg>
