<svg width="44" height="44" viewBox="0 0 44 44" fill="none" xmlns="http://www.w3.org/2000/svg">
<path d="M3.6665 31.2048L3.6665 23.9095L3.71119 23.2429C4.28624 14.664 10.3984 7.53861 18.6373 5.84265C20.8568 5.38578 23.1429 5.38578 25.3624 5.84265C33.6012 7.5386 39.7134 14.664 40.2885 23.2429L40.3332 23.9095V31.2048M28.5807 32.6355C28.2704 31.0022 28.2704 29.3231 28.5807 27.6898C29.0795 25.0646 30.9796 22.9501 33.4944 22.2218L34.0279 22.0673C34.5823 21.9067 35.1558 21.8253 35.7321 21.8253C38.2732 21.8253 40.3332 23.9331 40.3331 26.5332V33.792C40.3332 36.3922 38.2732 38.5 35.7321 38.5C35.1558 38.5 34.5823 38.4186 34.0279 38.258L33.4944 38.1035C30.9796 37.3751 29.0795 35.2606 28.5807 32.6355ZM15.4189 32.6355C15.7292 31.0022 15.7292 29.3231 15.4189 27.6898C14.9202 25.0646 13.02 22.9501 10.5052 22.2218L9.97179 22.0673C9.41732 21.9067 8.84384 21.8253 8.26759 21.8253C5.72648 21.8253 3.6665 23.9331 3.66651 26.5332L3.66651 33.792C3.6665 36.3922 5.72648 38.5 8.26759 38.5C8.84384 38.5 9.41732 38.4186 9.97178 38.258L10.5052 38.1035C13.02 37.3751 14.9202 35.2606 15.4189 32.6355Z" stroke="#7E7EE2" stroke-width="2.5"/>
</svg>
