<svg width="36" height="36" viewBox="0 0 36 36" fill="none" xmlns="http://www.w3.org/2000/svg">
<path d="M12.75 23.6114C12.75 22.1362 13.8129 20.8797 15.2575 20.6472C17.0743 20.3549 18.9257 20.3549 20.7425 20.6472C22.1871 20.8797 23.25 22.1362 23.25 23.6114V23.9379C23.25 24.8006 22.5565 25.5 21.701 25.5H14.299C13.4435 25.5 12.75 24.8006 12.75 23.9379V23.6114Z" stroke="#7E7EE2" stroke-width="2.2"/>
<path d="M21.0625 13.5882C21.0625 15.2938 19.6914 16.6765 18 16.6765C16.3086 16.6765 14.9375 15.2938 14.9375 13.5882C14.9375 11.8827 16.3086 10.5 18 10.5C19.6914 10.5 21.0625 11.8827 21.0625 13.5882Z" stroke="#7E7EE2" stroke-width="2.2"/>
<path d="M31.5 10.5C31.5 7.18629 28.1421 4.5 24 4.5M4.5 24C4.5 28.1421 7.18629 31.5 10.5 31.5M10.5 4.5C7.18629 4.5 4.5 7.18629 4.5 10.5M24 31.5C28.1421 31.5 31.5 28.1421 31.5 24" stroke="#7E7EE2" stroke-width="2.2" stroke-linecap="round"/>
</svg>
