<svg width="36" height="36" viewBox="0 0 36 36" fill="none" xmlns="http://www.w3.org/2000/svg">
<path d="M4.5 27.6495C4.5 24.6462 6.68228 22.0881 9.64805 21.6147L9.9152 21.5721C12.29 21.1931 14.71 21.1931 17.0848 21.5721L17.3519 21.6147C20.3177 22.0881 22.5 24.6462 22.5 27.6495C22.5 28.9477 21.4477 30 20.1495 30H6.85045C5.55233 30 4.5 28.9477 4.5 27.6495Z" stroke="#7E7EE2" stroke-width="2.2"/>
<path d="M18.75 11.25C18.75 14.1495 16.3995 16.5 13.5 16.5C10.6005 16.5 8.25 14.1495 8.25 11.25C8.25 8.35051 10.6005 6 13.5 6C16.3995 6 18.75 8.35051 18.75 11.25Z" stroke="#7E7EE2" stroke-width="2.2"/>
<path d="M22.5 16.5C25.3995 16.5 27.75 14.1495 27.75 11.25C27.75 8.35051 25.3995 6 22.5 6M26.0848 30H29.1495C30.4477 30 31.5 28.9477 31.5 27.6495C31.5 24.6462 29.3177 22.0881 26.3519 21.6147V21.6147C26.1741 21.5864 25.994 21.5721 25.814 21.5721C25.3343 21.5721 25.1854 21.5721 24.3617 21.5721" stroke="#7E7EE2" stroke-width="2.2" stroke-linecap="round"/>
</svg>
