<svg width="24" height="24" viewBox="0 0 24 24" fill="none" xmlns="http://www.w3.org/2000/svg">
<path d="M3.31573 13.7811L4.09459 13.5984L3.31573 13.7811ZM3.31573 8.324L4.09459 8.50669H4.09459L3.31573 8.324ZM18.7893 8.324L19.5682 8.14131L18.7893 8.324ZM18.7893 13.781L19.5682 13.9637L18.7893 13.781ZM13.781 18.7893L13.5984 18.0105L13.781 18.7893ZM8.324 18.7893L8.14131 19.5682L8.324 18.7893ZM8.324 3.31573L8.14131 2.53687L8.324 3.31573ZM13.781 3.31573L13.9637 2.53687L13.781 3.31573ZM20.4343 21.5657C20.7467 21.8781 21.2533 21.8781 21.5657 21.5657C21.8781 21.2533 21.8781 20.7467 21.5657 20.4343L20.4343 21.5657ZM4.09459 13.5984C3.7018 11.9239 3.7018 10.1812 4.09459 8.50669L2.53687 8.1413C2.08771 10.0561 2.08771 12.0489 2.53687 13.9637L4.09459 13.5984ZM18.0105 8.5067C18.4032 10.1812 18.4032 11.9239 18.0105 13.5984L19.5682 13.9637C20.0173 12.0489 20.0173 10.0561 19.5682 8.14131L18.0105 8.5067ZM13.5984 18.0105C11.9239 18.4032 10.1812 18.4032 8.5067 18.0105L8.14131 19.5682C10.0561 20.0173 12.0489 20.0173 13.9637 19.5682L13.5984 18.0105ZM8.5067 4.09459C10.1812 3.7018 11.9239 3.7018 13.5984 4.09459L13.9637 2.53687C12.0489 2.08771 10.0561 2.08771 8.14131 2.53687L8.5067 4.09459ZM8.5067 18.0105C6.31748 17.4969 4.60811 15.7876 4.09459 13.5984L2.53687 13.9637C3.18917 16.7446 5.36047 18.9159 8.14131 19.5682L8.5067 18.0105ZM13.9637 19.5682C16.7446 18.9159 18.9159 16.7446 19.5682 13.9637L18.0105 13.5984C17.4969 15.7876 15.7876 17.4969 13.5984 18.0105L13.9637 19.5682ZM13.5984 4.09459C15.7876 4.60811 17.4969 6.31747 18.0105 8.5067L19.5682 8.14131C18.9159 5.36047 16.7446 3.18916 13.9637 2.53687L13.5984 4.09459ZM8.14131 2.53687C5.36047 3.18916 3.18917 5.36046 2.53687 8.1413L4.09459 8.50669C4.60811 6.31747 6.31747 4.60811 8.5067 4.09459L8.14131 2.53687ZM16.7695 17.9008L20.4343 21.5657L21.5657 20.4343L17.9008 16.7695L16.7695 17.9008Z" fill="#7E7EE2"/>
</svg>
