<svg width="36" height="36" viewBox="0 0 36 36" fill="none" xmlns="http://www.w3.org/2000/svg">
<path d="M7.5 28.6672C7.5 25.0476 10.046 21.9644 13.5061 21.394L13.8177 21.3426C16.5884 20.8858 19.4116 20.8858 22.1823 21.3426L22.4939 21.394C25.954 21.9644 28.5 25.0476 28.5 28.6672C28.5 30.2317 27.2723 31.5 25.7578 31.5H10.2422C8.72772 31.5 7.5 30.2317 7.5 28.6672Z" stroke="#7E7EE2" stroke-width="2.2"/>
<path d="M24.125 10.4062C24.125 13.6682 21.3828 16.3125 18 16.3125C14.6173 16.3125 11.875 13.6682 11.875 10.4062C11.875 7.14432 14.6173 4.5 18 4.5C21.3828 4.5 24.125 7.14432 24.125 10.4062Z" stroke="#7E7EE2" stroke-width="2.2"/>
</svg>
