<svg width="36" height="36" viewBox="0 0 36 36" fill="none" xmlns="http://www.w3.org/2000/svg">
<path d="M6.45338 9.7506L15.1237 15.9451C16.8443 17.1743 19.1557 17.1743 20.8763 15.9451L29.5466 9.7506M4.32809 22.7269C3.5573 19.6228 3.5573 16.3772 4.32809 13.2731C5.33707 9.20975 8.55902 6.06801 12.6458 5.16243L13.3266 5.01157C16.4049 4.32948 19.5951 4.32948 22.6734 5.01157L23.3542 5.16243C27.441 6.06801 30.6629 9.20976 31.6719 13.2731C32.4427 16.3772 32.4427 19.6228 31.6719 22.7269C30.6629 26.7902 27.441 29.932 23.3542 30.8376L22.6734 30.9884C19.5951 31.6705 16.4049 31.6705 13.3266 30.9884L12.6458 30.8376C8.55902 29.932 5.33707 26.7903 4.32809 22.7269Z" stroke="#7E7EE2" stroke-width="2.2" stroke-linecap="round"/>
</svg>
