<svg width="36" height="36" viewBox="0 0 36 36" fill="none" xmlns="http://www.w3.org/2000/svg">
<path d="M30.035 14.5785C30.035 13.971 29.5425 13.4785 28.935 13.4785C28.3275 13.4785 27.835 13.971 27.835 14.5785H30.035ZM8.16499 14.5785C8.16499 13.971 7.6725 13.4785 7.06499 13.4785C6.45747 13.4785 5.96499 13.971 5.96499 14.5785H8.16499ZM21.7699 31.0607L21.517 29.9901L21.7699 31.0607ZM14.2301 31.0607L14.483 29.9901L14.2301 31.0607ZM22.2426 7.52134L21.4621 8.2964V8.2964L22.2426 7.52134ZM30.7194 17.6196C31.1475 18.0507 31.844 18.0532 32.2751 17.6251C32.7062 17.1971 32.7086 16.5006 32.2806 16.0695L30.7194 17.6196ZM13.7574 7.52134L14.5379 8.2964L13.7574 7.52134ZM3.71943 16.0695C3.29138 16.5006 3.29385 17.1971 3.72494 17.6251C4.15604 18.0532 4.85252 18.0507 5.28057 17.6196L3.71943 16.0695ZM14.5776 27.4805L13.4965 27.2775V27.2775L14.5776 27.4805ZM14.6066 27.3259L15.6878 27.5288V27.5288L14.6066 27.3259ZM21.3934 27.3259L20.3122 27.5288L20.3122 27.5288L21.3934 27.3259ZM21.4224 27.4805L22.5035 27.2775V27.2775L21.4224 27.4805ZM20.9877 30.8278L19.9944 30.3552L19.9944 30.3552L20.9877 30.8278ZM19.8192 30.7232C19.5582 31.2718 19.7913 31.9281 20.3398 32.1892C20.8884 32.4502 21.5447 32.2172 21.8058 31.6686L19.8192 30.7232ZM15.0123 30.8278L14.0191 31.3005L14.0191 31.3005L15.0123 30.8278ZM14.1942 31.6686C14.4553 32.2172 15.1116 32.4502 15.6602 32.1892C16.2088 31.9281 16.4418 31.2718 16.1808 30.7232L14.1942 31.6686ZM17.0416 24.6638L16.7475 23.6039H16.7475L17.0416 24.6638ZM18.9584 24.6638L19.2525 23.6039L18.9584 24.6638ZM27.835 14.5785V21.9561H30.035V14.5785H27.835ZM8.16499 21.9561V14.5785H5.96499V21.9561H8.16499ZM21.517 29.9901C19.2037 30.5366 16.7963 30.5366 14.483 29.9901L13.9772 32.1312C16.6231 32.7563 19.3769 32.7563 22.0228 32.1312L21.517 29.9901ZM14.483 29.9901C10.7868 29.117 8.16499 25.793 8.16499 21.9561H5.96499C5.96499 26.8033 9.27846 31.0212 13.9772 32.1312L14.483 29.9901ZM22.0228 32.1312C26.7215 31.0212 30.035 26.8033 30.035 21.9561H27.835C27.835 25.793 25.2132 29.117 21.517 29.9901L22.0228 32.1312ZM21.4621 8.2964L30.7194 17.6196L32.2806 16.0695L23.0232 6.74629L21.4621 8.2964ZM12.9768 6.74629L3.71943 16.0695L5.28057 17.6196L14.5379 8.2964L12.9768 6.74629ZM23.0232 6.74629C22.0452 5.76129 21.2352 4.94225 20.5075 4.3831C19.7548 3.8047 18.9609 3.4 18 3.4V5.6C18.2817 5.6 18.6092 5.69886 19.1671 6.12757C19.7501 6.57553 20.4401 7.26716 21.4621 8.2964L23.0232 6.74629ZM14.5379 8.2964C15.5599 7.26716 16.2499 6.57554 16.8329 6.12757C17.3908 5.69886 17.7183 5.6 18 5.6V3.4C17.0391 3.4 16.2452 3.8047 15.4925 4.3831C14.7648 4.94225 13.9548 5.76129 12.9768 6.74629L14.5379 8.2964ZM15.6588 27.6834L15.6878 27.5288L13.5255 27.123L13.4965 27.2775L15.6588 27.6834ZM20.3122 27.5288L20.3412 27.6834L22.5035 27.2775L22.4745 27.123L20.3122 27.5288ZM19.9944 30.3552L19.8192 30.7232L21.8058 31.6686L21.9809 31.3005L19.9944 30.3552ZM14.0191 31.3005L14.1942 31.6686L16.1808 30.7232L16.0056 30.3552L14.0191 31.3005ZM20.3412 27.6834C20.5112 28.5888 20.3895 29.525 19.9944 30.3552L21.9809 31.3005C22.5763 30.0494 22.7592 28.64 22.5035 27.2775L20.3412 27.6834ZM13.4965 27.2775C13.2408 28.64 13.4237 30.0494 14.0191 31.3005L16.0056 30.3552C15.6105 29.525 15.4888 28.5888 15.6588 27.6834L13.4965 27.2775ZM17.3357 25.7238C17.7705 25.6031 18.2295 25.6031 18.6643 25.7238L19.2525 23.6039C18.4328 23.3764 17.5672 23.3764 16.7475 23.6039L17.3357 25.7238ZM22.4745 27.123C22.1569 25.4313 20.9097 24.0637 19.2525 23.6039L18.6643 25.7238C19.5062 25.9574 20.1483 26.6553 20.3122 27.5288L22.4745 27.123ZM15.6878 27.5288C15.8517 26.6553 16.4938 25.9574 17.3357 25.7238L16.7475 23.6039C15.0903 24.0637 13.8431 25.4313 13.5255 27.123L15.6878 27.5288Z" fill="#7E7EE2"/>
</svg>
