<svg width="36" height="36" viewBox="0 0 36 36" fill="none" xmlns="http://www.w3.org/2000/svg">
<path d="M6.97965 25.546L5.9609 25.9609H5.9609L6.97965 25.546ZM6.45914 17.1115L7.52088 17.399L6.45914 17.1115ZM29.5409 17.1115L28.4791 17.399L29.5409 17.1115ZM29.0203 25.546L30.0391 25.9609V25.9609L29.0203 25.546ZM21.0547 31.2629L20.8849 30.1761L21.0547 31.2629ZM14.9453 31.2629L14.7755 32.3498L14.9453 31.2629ZM12.9843 11.4252L12.7653 10.3473H12.7653L12.9843 11.4252ZM23.0157 11.4252L22.7967 12.5032L22.7967 12.5032L23.0157 11.4252ZM13.8222 31.0875L13.992 30.0007L13.8222 31.0875ZM7.11898 25.8881L8.13772 25.4732L8.13772 25.4732L7.11898 25.8881ZM22.1778 31.0875L22.3476 32.1743L22.3476 32.1743L22.1778 31.0875ZM28.881 25.8881L27.8622 25.4732V25.4732L28.881 25.8881ZM23.4299 11.5094L23.6489 10.4314L23.6489 10.4314L23.4299 11.5094ZM12.5701 11.5094L12.7891 12.5874L12.7891 12.5874L12.5701 11.5094ZM10.366 11.1682C10.366 11.7757 10.8585 12.2682 11.466 12.2682C12.0735 12.2682 12.566 11.7757 12.566 11.1682H10.366ZM11.466 10.8141H10.366H11.466ZM16.3782 4.71613L16.1115 3.64894L16.1115 3.64894L16.3782 4.71613ZM16.4807 4.69052L16.7473 5.75771L16.7473 5.75771L16.4807 4.69052ZM22.3812 6.22896L21.6196 7.02267L21.6196 7.02267L22.3812 6.22896ZM22.0028 7.39037C22.4411 7.81099 23.1375 7.7966 23.5581 7.35825C23.9787 6.91989 23.9643 6.22356 23.526 5.80295L22.0028 7.39037ZM19.5231 4.67625L19.7797 3.6066L19.5231 4.67625ZM12.7891 12.5874L13.2033 12.5032L12.7653 10.3473L12.3511 10.4314L12.7891 12.5874ZM22.7967 12.5032L23.2109 12.5874L23.6489 10.4314L23.2347 10.3473L22.7967 12.5032ZM22.008 30.0007L20.8849 30.1761L21.2245 32.3498L22.3476 32.1743L22.008 30.0007ZM15.1151 30.1761L13.992 30.0007L13.6524 32.1743L14.7755 32.3498L15.1151 30.1761ZM28.0016 25.1311L27.8622 25.4732L29.8997 26.303L30.0391 25.9609L28.0016 25.1311ZM8.13772 25.4732L7.99839 25.1311L5.9609 25.9609L6.10023 26.303L8.13772 25.4732ZM7.99839 25.1311C6.99392 22.6648 6.82735 19.9597 7.52088 17.399L5.39739 16.8239C4.57749 19.8511 4.77525 23.0498 5.9609 25.9609L7.99839 25.1311ZM28.4791 17.399C29.1727 19.9597 29.0061 22.6648 28.0016 25.1311L30.0391 25.9609C31.2247 23.0498 31.4225 19.8511 30.6026 16.8239L28.4791 17.399ZM20.8849 30.1761C18.9742 30.4746 17.0257 30.4746 15.1151 30.1761L14.7755 32.3498C16.9111 32.6834 19.0888 32.6834 21.2245 32.3498L20.8849 30.1761ZM13.2033 12.5032C16.3659 11.8607 19.6341 11.8607 22.7967 12.5032L23.2347 10.3473C19.783 9.64604 16.217 9.64604 12.7653 10.3473L13.2033 12.5032ZM13.992 30.0007C11.3216 29.5835 9.10535 27.849 8.13772 25.4732L6.10023 26.303C7.37128 29.4238 10.2523 31.6431 13.6524 32.1743L13.992 30.0007ZM22.3476 32.1743C25.7476 31.6431 28.6287 29.4238 29.8997 26.303L27.8622 25.4732C26.8946 27.849 24.6784 29.5835 22.008 30.0007L22.3476 32.1743ZM23.2109 12.5874C25.8014 13.1136 27.8271 14.9917 28.4791 17.399L30.6026 16.8239C29.7229 13.5757 27.0162 11.1155 23.6489 10.4314L23.2109 12.5874ZM12.3511 10.4314C8.98385 11.1155 6.27714 13.5757 5.39739 16.8239L7.52088 17.399C8.17289 14.9917 10.1987 13.1136 12.7891 12.5874L12.3511 10.4314ZM12.566 11.1682V10.8141H10.366V11.1682H12.566ZM16.6448 5.78332L16.7473 5.75771L16.214 3.62333L16.1115 3.64894L16.6448 5.78332ZM21.6196 7.02267L22.0028 7.39037L23.526 5.80295L23.1428 5.43524L21.6196 7.02267ZM19.2665 5.74591C20.162 5.96072 20.9747 6.40385 21.6196 7.02267L23.1428 5.43524C22.2108 4.54102 21.0477 3.91076 19.7797 3.6066L19.2665 5.74591ZM16.7473 5.75771C17.5725 5.55151 18.4392 5.54744 19.2665 5.74591L19.7797 3.6066C18.6083 3.32559 17.3826 3.33132 16.214 3.62333L16.7473 5.75771ZM12.566 10.8141C12.566 8.47826 14.2139 6.39073 16.6448 5.78332L16.1115 3.64894C12.7563 4.48731 10.366 7.41285 10.366 10.8141H12.566Z" fill="#7E7EE2"/>
<path d="M18 20.25L18 23.25" stroke="#7E7EE2" stroke-width="2.2" stroke-linecap="round"/>
</svg>
