<svg width="129" height="24" viewBox="0 0 129 24" fill="none" xmlns="http://www.w3.org/2000/svg">
<g clip-path="url(#clip0_14_1827)">
<g clip-path="url(#clip1_14_1827)">
<path d="M8.4289 3.25009V6.7514H3.19849C3.19849 6.7514 3.27212 3.26579 8.4289 3.25009Z" fill="#7E7EE2"/>
<path d="M7.87763 9.78841V7.18654H4.01953C4.0173 7.18654 5.05936 9.74804 7.87763 9.78841Z" fill="#7E7EE2"/>
<path d="M10.2721 3.13346L8.42896 3.25009V5.00187L10.2721 3.33532V3.13346Z" fill="#7E7EE2"/>
<path d="M18.0911 23.9417C24.6227 23.9417 29.9175 18.6193 29.9175 12.0538C29.9175 5.48835 24.6227 0.165979 18.0911 0.165979C11.5595 0.165979 6.26465 5.48835 6.26465 12.0538C6.26465 18.6193 11.5595 23.9417 18.0911 23.9417Z" fill="#272443"/>
<path d="M24.1939 12.1637L17.9191 8.15327C17.9191 8.15327 16.9195 10.4927 19.0304 12.1907C21.6233 14.2789 24.1939 12.1637 24.1939 12.1637Z" fill="#F1F2FF"/>
<path d="M7.47388 6.7514C7.47388 6.7514 21.6255 8.36187 28.3621 6.15701C28.3621 6.15701 27.4427 4.28187 25.372 2.68486C24.7829 2.22953 10.2743 3.1357 10.2743 3.1357C10.2743 3.1357 8.34859 4.41645 7.47388 6.7514Z" fill="#7E7EE2"/>
</g>
<path d="M35.235 19V5.7H39.51L42.74 13.3H43.215L46.445 5.7H50.72V19H47.87V10.545L48.06 8.835H47.87L44.83 15.96H41.125L38.085 8.835H37.895L38.085 10.545V19H35.235ZM53.1602 7.657C52.8688 7.36567 52.7232 7.03 52.7232 6.65C52.7232 6.27 52.8688 5.94067 53.1602 5.662C53.4642 5.37067 53.8252 5.225 54.2432 5.225C54.6612 5.225 55.0158 5.37067 55.3072 5.662C55.6112 5.94067 55.7632 6.27 55.7632 6.65C55.7632 7.03 55.6112 7.36567 55.3072 7.657C55.0158 7.93567 54.6612 8.075 54.2432 8.075C53.8252 8.075 53.4642 7.93567 53.1602 7.657ZM52.9132 19V9.31H55.5732V19H52.9132ZM57.6632 19V9.31H60.3232V10.64H60.4182C60.5828 10.3487 60.8172 10.0827 61.1212 9.842C61.8178 9.29733 62.5968 9.025 63.4582 9.025C64.6615 9.025 65.5925 9.37333 66.2512 10.07C66.9225 10.7667 67.2582 11.78 67.2582 13.11V19H64.5982V13.49C64.5982 12.7807 64.4208 12.2423 64.0662 11.875C63.7242 11.495 63.2365 11.305 62.6032 11.305C61.9698 11.305 61.4315 11.5457 60.9882 12.027C60.5448 12.5083 60.3232 13.1227 60.3232 13.87V19H57.6632ZM68.4998 11.59V9.31H69.7348V7.22H72.3948V9.31H75.1308V11.59H72.3948V16.72H75.2448V19H69.7348V11.59H68.4998Z" fill="#272443"/>
<path d="M76.9459 19V5.7H83.7859C85.1159 5.7 86.1609 6.023 86.9209 6.669C87.6809 7.315 88.0609 8.132 88.0609 9.12C88.0609 10.07 87.7126 10.8173 87.0159 11.362C86.6866 11.59 86.3383 11.761 85.9709 11.875V11.97C86.4143 12.0587 86.8386 12.236 87.2439 12.502C88.1053 13.072 88.5359 13.9397 88.5359 15.105C88.5359 16.245 88.1053 17.1823 87.2439 17.917C86.3953 18.639 85.2109 19 83.6909 19H76.9459ZM79.7959 10.925H83.4059C83.9506 10.925 84.3686 10.8047 84.6599 10.564C84.9639 10.3107 85.1159 9.98767 85.1159 9.595C85.1159 9.20233 84.9639 8.88567 84.6599 8.645C84.3686 8.39167 83.9506 8.265 83.4059 8.265H79.7959V10.925ZM79.7959 16.435H83.5009C84.1976 16.435 84.7169 16.2957 85.0589 16.017C85.4136 15.7383 85.5909 15.371 85.5909 14.915C85.5909 14.459 85.4136 14.0917 85.0589 13.813C84.7169 13.5343 84.1976 13.395 83.5009 13.395H79.7959V16.435ZM90.4922 7.657C90.2009 7.36567 90.0552 7.03 90.0552 6.65C90.0552 6.27 90.2009 5.94067 90.4922 5.662C90.7962 5.37067 91.1572 5.225 91.5752 5.225C91.9932 5.225 92.3479 5.37067 92.6392 5.662C92.9432 5.94067 93.0952 6.27 93.0952 6.65C93.0952 7.03 92.9432 7.36567 92.6392 7.657C92.3479 7.93567 91.9932 8.075 91.5752 8.075C91.1572 8.075 90.7962 7.93567 90.4922 7.657ZM90.2452 19V9.31H92.9052V19H90.2452ZM94.2352 11.59V9.31H95.4702V7.22H98.1302V9.31H100.866V11.59H98.1302V16.72H100.98V19H95.4702V11.59H94.2352ZM102.548 18.848C102.257 18.5567 102.111 18.1957 102.111 17.765C102.111 17.3343 102.257 16.9733 102.548 16.682C102.84 16.3907 103.201 16.245 103.631 16.245C104.062 16.245 104.423 16.3907 104.714 16.682C105.006 16.9733 105.151 17.3343 105.151 17.765C105.151 18.1957 105.006 18.5567 104.714 18.848C104.423 19.1393 104.062 19.285 103.631 19.285C103.201 19.285 102.84 19.1393 102.548 18.848ZM107.801 17.803C106.801 16.8023 106.3 15.5863 106.3 14.155C106.3 12.7237 106.801 11.514 107.801 10.526C108.815 9.52533 110.056 9.025 111.525 9.025C113.286 9.025 114.629 9.65833 115.553 10.925C115.971 11.4697 116.275 12.103 116.465 12.825H113.71C113.596 12.5463 113.444 12.293 113.254 12.065C112.773 11.5583 112.197 11.305 111.525 11.305C110.854 11.305 110.271 11.571 109.777 12.103C109.296 12.635 109.055 13.319 109.055 14.155C109.055 14.991 109.296 15.675 109.777 16.207C110.271 16.739 110.854 17.005 111.525 17.005C112.197 17.005 112.773 16.7517 113.254 16.245C113.444 16.017 113.596 15.7637 113.71 15.485H116.465C116.288 16.2197 115.997 16.853 115.591 17.385C114.667 18.6517 113.311 19.285 111.525 19.285C110.056 19.285 108.815 18.791 107.801 17.803ZM118.934 17.803C117.921 16.8023 117.414 15.5863 117.414 14.155C117.414 12.7237 117.921 11.514 118.934 10.526C119.948 9.52533 121.214 9.025 122.734 9.025C124.242 9.025 125.502 9.52533 126.515 10.526C127.541 11.514 128.054 12.7237 128.054 14.155C128.054 15.5863 127.541 16.8023 126.515 17.803C125.502 18.791 124.242 19.285 122.734 19.285C121.214 19.285 119.948 18.791 118.934 17.803ZM120.91 12.103C120.416 12.635 120.169 13.319 120.169 14.155C120.169 14.991 120.416 15.675 120.91 16.207C121.404 16.739 122.012 17.005 122.734 17.005C123.456 17.005 124.064 16.739 124.558 16.207C125.052 15.675 125.299 14.991 125.299 14.155C125.299 13.319 125.052 12.635 124.558 12.103C124.064 11.571 123.456 11.305 122.734 11.305C122.012 11.305 121.404 11.571 120.91 12.103Z" fill="#7E7EE2"/>
</g>
<defs>
<clipPath id="clip0_14_1827">
<rect width="129" height="24" fill="white"/>
</clipPath>
<clipPath id="clip1_14_1827">
<rect width="27" height="24" fill="white" transform="translate(3)"/>
</clipPath>
</defs>
</svg>
