<svg width="70" height="70" viewBox="0 0 70 70" fill="none" xmlns="http://www.w3.org/2000/svg">
<path d="M10.126 39.5338L12.2273 38.9257L12.2273 38.9257L10.126 39.5338ZM10.126 20.1441L8.02474 19.536L8.02474 19.536L10.126 20.1441ZM59.874 20.1441L61.9753 19.536L61.9753 19.536L59.874 20.1441ZM59.874 39.5338L57.7727 38.9257L57.7727 38.9257L59.874 39.5338ZM49.0431 49.6053L48.6345 47.4563L49.0431 49.6053ZM20.9569 49.6053L21.3655 47.4563L20.9569 49.6053ZM20.9569 10.0725L20.5483 7.92354L20.9569 10.0725ZM49.0431 10.0725L49.4517 7.92354L49.0431 10.0725ZM10.2668 40.0203L8.16553 40.6284L8.16553 40.6284L10.2668 40.0203ZM59.7332 40.0203L61.8345 40.6284L61.8345 40.6283L59.7332 40.0203ZM59.7332 19.6576L57.6319 20.2656L57.6319 20.2656L59.7332 19.6576ZM10.2668 19.6576L12.3681 20.2656L12.3681 20.2656L10.2668 19.6576ZM37.1875 52.2754C37.1875 51.0673 36.2081 50.0879 35 50.0879C33.7919 50.0879 32.8125 51.0673 32.8125 52.2754H37.1875ZM32.8125 61.25C32.8125 62.4581 33.7919 63.4375 35 63.4375C36.2081 63.4375 37.1875 62.4581 37.1875 61.25H32.8125ZM27.3112 59.0625C26.1031 59.0625 25.1237 60.0419 25.1237 61.25C25.1237 62.4581 26.1031 63.4375 27.3112 63.4375V59.0625ZM42.6887 63.4375C43.8969 63.4375 44.8762 62.4581 44.8762 61.25C44.8762 60.0419 43.8969 59.0625 42.6887 59.0625V63.4375ZM57.6319 20.2656L57.7727 20.7522L61.9753 19.536L61.8345 19.0495L57.6319 20.2656ZM57.7727 38.9257L57.6319 39.4122L61.8345 40.6283L61.9753 40.1418L57.7727 38.9257ZM12.3681 39.4122L12.2273 38.9257L8.02474 40.1419L8.16553 40.6284L12.3681 39.4122ZM12.2273 20.7521L12.3681 20.2656L8.16553 19.0495L8.02474 19.536L12.2273 20.7521ZM12.2273 38.9257C10.5076 32.9829 10.5076 26.695 12.2273 20.7521L8.02474 19.536C6.07509 26.2733 6.07509 33.4046 8.02474 40.1419L12.2273 38.9257ZM57.7727 20.7522C59.4924 26.695 59.4924 32.9829 57.7727 38.9257L61.9753 40.1418C63.9249 33.4046 63.9249 26.2733 61.9753 19.536L57.7727 20.7522ZM48.6345 47.4563C39.6302 49.1684 30.3698 49.1684 21.3655 47.4563L20.5483 51.7543C30.0926 53.569 39.9074 53.569 49.4517 51.7543L48.6345 47.4563ZM21.3655 12.2215C30.3698 10.5095 39.6302 10.5095 48.6345 12.2215L49.4517 7.92354C39.9074 6.10882 30.0926 6.10882 20.5483 7.92354L21.3655 12.2215ZM21.3655 47.4563C17.012 46.6285 13.5503 43.4973 12.3681 39.4122L8.16553 40.6284C9.82002 46.3457 14.6271 50.6285 20.5483 51.7543L21.3655 47.4563ZM49.4517 51.7543C55.3729 50.6285 60.18 46.3457 61.8345 40.6284L57.6319 39.4122C56.4497 43.4973 52.988 46.6285 48.6345 47.4563L49.4517 51.7543ZM48.6345 12.2215C52.988 13.0493 56.4497 16.1805 57.6319 20.2656L61.8345 19.0495C60.18 13.3322 55.3729 9.04938 49.4517 7.92354L48.6345 12.2215ZM20.5483 7.92354C14.6271 9.04938 9.82002 13.3322 8.16553 19.0495L12.3681 20.2656C13.5503 16.1805 17.012 13.0493 21.3655 12.2215L20.5483 7.92354ZM32.8125 52.2754V61.25H37.1875V52.2754H32.8125ZM27.3112 63.4375H42.6887V59.0625H27.3112V63.4375Z" fill="#7E7EE2"/>
<path d="M23.3333 32.8125L29.3382 28.0836C30.4343 27.2204 30.9823 26.7888 31.5884 26.8658C32.1944 26.9428 32.6172 27.4977 33.4627 28.6074L36.5371 32.6426C37.3827 33.7523 37.8054 34.3072 38.4115 34.3842C39.0175 34.4612 39.5655 34.0296 40.6616 33.1664L46.6666 28.4375" stroke="#7E7EE2" stroke-width="4.375" stroke-linecap="round"/>
</svg>
