<svg width="33" height="68" viewBox="0 0 33 68" fill="none" xmlns="http://www.w3.org/2000/svg">
<g clip-path="url(#clip0_220_3202)">
<path d="M17.5369 65.3264L17.9019 60.803L21.5614 58.1453L17.0538 57.7759L14.3916 54.1007L14.0109 58.6285L10.3515 61.2862L14.859 61.6556L17.5369 65.3264Z" fill="#D2D2FF" fill-opacity="0.5"/>
</g>
<g clip-path="url(#clip1_220_3202)">
<path d="M22.2599 46.4125L25.5816 44.4046L29.2555 45.6157L27.2585 42.3027L28.4784 38.6179L25.1456 40.617L21.4718 39.4059L23.4688 42.719L22.2599 46.4125Z" fill="#D2D2FF" fill-opacity="0.5"/>
</g>
<g clip-path="url(#clip2_220_3202)">
<path d="M2.83499 40.8752L7.4307 43.7048L8.27047 49.0176L11.0962 44.4409L16.4281 43.605L11.8362 40.7563L10.9964 35.4435L8.17065 40.0201L2.83499 40.8752Z" fill="#D2D2FF" fill-opacity="0.5"/>
</g>
<g clip-path="url(#clip3_220_3202)">
<path d="M15.0637 1.89604L14.6986 6.41937L11.0392 9.07711L15.5468 9.44649L18.209 13.1217L18.5897 8.5939L22.2491 5.9362L17.7415 5.56678L15.0637 1.89604Z" fill="#D2D2FF" fill-opacity="0.5"/>
</g>
<g clip-path="url(#clip4_220_3202)">
<path d="M10.3407 20.8099L7.01896 22.8178L3.34507 21.6067L5.34207 24.9197L4.12222 28.6045L7.45494 26.6054L11.1288 27.8165L9.13183 24.5035L10.3407 20.8099Z" fill="#D2D2FF" fill-opacity="0.5"/>
</g>
<g clip-path="url(#clip5_220_3202)">
<path d="M29.7656 26.3472L25.1699 23.5176L24.3301 18.2048L21.5044 22.7815L16.1725 23.6175L20.7644 26.4662L21.6042 31.7789L24.4299 27.2023L29.7656 26.3472Z" fill="#D2D2FF" fill-opacity="0.5"/>
</g>
<defs>
<clipPath id="clip0_220_3202">
<rect width="11.9938" height="11.9938" fill="white" transform="translate(8.77881 55.6734) rotate(-15.6524)"/>
</clipPath>
<clipPath id="clip1_220_3202">
<rect width="10.2585" height="10.2585" fill="white" transform="translate(24.5811 35.5086) rotate(38.5827)"/>
</clipPath>
<clipPath id="clip2_220_3202">
<rect width="14.2639" height="14.2639" fill="white" transform="translate(17.793 36.8084) rotate(101.355)"/>
</clipPath>
<clipPath id="clip3_220_3202">
<rect width="11.9938" height="11.9938" fill="white" transform="translate(23.8218 11.549) rotate(164.348)"/>
</clipPath>
<clipPath id="clip4_220_3202">
<rect width="10.2585" height="10.2585" fill="white" transform="translate(8.01953 31.7138) rotate(-141.417)"/>
</clipPath>
<clipPath id="clip5_220_3202">
<rect width="14.2639" height="14.2639" fill="white" transform="translate(14.8076 30.414) rotate(-78.6448)"/>
</clipPath>
</defs>
</svg>
