<svg width="23" height="19" viewBox="0 0 23 19" fill="none" xmlns="http://www.w3.org/2000/svg">
    <path d="M2.42401 8.71954C8.32957 6.17934 12.2675 4.50469 14.2379 3.69558C19.8637 1.3854 21.0327 0.984102 21.7947 0.97071C21.9622 0.967936 22.3369 1.00894 22.5797 1.20338C22.7846 1.36755 22.841 1.58934 22.868 1.745C22.895 1.90066 22.9286 2.25525 22.9018 2.53232C22.597 5.69477 21.2778 13.3692 20.6067 16.9112C20.3228 18.41 19.7636 18.9125 19.2223 18.9617C18.0459 19.0685 17.1526 18.1941 16.0132 17.4567C14.2302 16.3029 13.2229 15.5846 11.4923 14.4586C9.4922 13.1574 10.7888 12.4422 11.9286 11.2734C12.2269 10.9675 17.4102 6.31293 17.5105 5.89069C17.5231 5.83788 17.5347 5.64103 17.4163 5.53709C17.2978 5.43315 17.123 5.4687 16.9968 5.49697C16.818 5.53703 13.9697 7.39568 8.45197 11.0729C7.64349 11.621 6.9112 11.888 6.25509 11.874C5.53178 11.8586 4.14042 11.4703 3.10609 11.1383C1.83745 10.7312 0.829151 10.5159 0.916951 9.8245C0.962682 9.46435 1.46503 9.09603 2.42401 8.71954Z" fill="#272443"></path>
</svg>