<svg width="26" height="26" viewBox="0 0 26 26" fill="none" xmlns="http://www.w3.org/2000/svg">
<path d="M10.384 21.6441C8.01303 21.0884 6.15934 19.2399 5.59588 16.8695L5.48821 16.4165C4.98038 14.2801 4.91842 12.0619 5.3062 9.90049L5.38841 9.44223C5.81867 7.04403 7.5663 5.09498 9.90258 4.40779C11.7991 3.84995 13.8078 3.79384 15.7324 4.24494C18.1034 4.80065 19.9571 6.64911 20.5206 9.01955L20.6283 9.4725C21.1361 11.6089 21.198 13.8271 20.8103 15.9885L20.7281 16.4468C20.2978 18.845 18.5502 20.794 16.2139 21.4812C14.3174 22.0391 12.3087 22.0952 10.384 21.6441Z" stroke="#DFDFFF" stroke-width="1.5"/>
<path d="M12.9185 7.94647L12.9743 9.94569" stroke="#DFDFFF" stroke-width="1.5" stroke-linecap="round"/>
</svg>
