<svg width="20" height="20" viewBox="0 0 20 20" fill="none" xmlns="http://www.w3.org/2000/svg">
<path d="M12.7924 2.5L10.0003 5.14706L7.20811 2.5M7.22249 16.1765L6.29649 17.5M12.7785 16.1765L13.7045 17.5M4.00689 12.8412C3.66437 11.5557 3.66437 10.209 4.00689 8.92356C4.44554 7.27735 5.82396 6.00938 7.56598 5.64967L7.97582 5.56504C9.30979 5.28958 10.6902 5.28958 12.0242 5.56504L12.434 5.64967C14.176 6.00939 15.5545 7.27735 15.9931 8.92356C16.3356 10.209 16.3356 11.5557 15.9931 12.8411C15.5545 14.4874 14.176 15.7553 12.434 16.115L12.0242 16.1997C10.6902 16.4751 9.30979 16.4751 7.97582 16.1997L7.56598 16.115C5.82396 15.7553 4.44554 14.4874 4.00689 12.8412Z" stroke="#272443" stroke-width="1.2" stroke-linecap="round"/>
</svg>
