<svg width="40" height="40" viewBox="0 0 40 40" fill="none" xmlns="http://www.w3.org/2000/svg">
<path d="M22.7036 27.3988V28.8171C22.7036 30.2165 21.5427 31.3509 20.1108 31.3509M17.518 27.3988V28.8171C17.518 30.2165 18.6788 31.3509 20.1108 31.3509M20.1108 31.3509V35M20.8022 11.3519L17.3451 15.5748H22.5307L19.0736 19.7977M8.81254 19.3247C8.17316 16.8638 8.17316 14.2858 8.81254 11.8249C9.63135 8.67349 12.2044 6.24613 15.4562 5.55751L16.2212 5.3955C18.7113 4.86817 21.2881 4.86817 23.7782 5.3955L24.5432 5.55751C27.7949 6.24613 30.368 8.6735 31.1868 11.8249C31.8262 14.2858 31.8262 16.8638 31.1868 19.3246C30.368 22.4761 27.7949 24.9034 24.5432 25.5921L23.7781 25.7541C21.2881 26.2814 18.7113 26.2814 16.2212 25.7541L15.4562 25.5921C12.2044 24.9034 9.63135 22.4761 8.81254 19.3247Z" stroke="#7E7EE2" stroke-width="2.5" stroke-linecap="round" stroke-linejoin="round"/>
</svg>
