<svg width="50" height="45" viewBox="0 0 50 45" fill="none" xmlns="http://www.w3.org/2000/svg">
<g clip-path="url(#clip0_1_7164)">
<path d="M10.0522 6.01892V12.5028H0.366211C0.366211 12.5028 0.502569 6.048 10.0522 6.01892Z" fill="#7E7EE2"/>
<path d="M9.03183 18.1268V13.3085H1.88721C1.88308 13.3085 3.81282 18.052 9.03183 18.1268Z" fill="#7E7EE2"/>
<path d="M13.466 5.80298L10.0527 6.01897V9.263L13.466 6.17681V5.80298Z" fill="#7E7EE2"/>
<path d="M27.9462 44.3368C40.0417 44.3368 49.8471 34.4806 49.8471 22.3223C49.8471 10.164 40.0417 0.307739 27.9462 0.307739C15.8507 0.307739 6.04541 10.164 6.04541 22.3223C6.04541 34.4806 15.8507 44.3368 27.9462 44.3368Z" fill="#272443"/>
<path d="M39.2478 22.5258L27.628 15.099C27.628 15.099 25.7767 19.4313 29.6858 22.5756C34.4875 26.4427 39.2478 22.5258 39.2478 22.5258Z" fill="#FCFCFE"/>
<path d="M8.28369 12.5028C8.28369 12.5028 34.4903 15.4852 46.9655 11.4021C46.9655 11.4021 45.263 7.92962 41.4283 4.97219C40.3374 4.12899 13.4696 5.80708 13.4696 5.80708C13.4696 5.80708 9.90353 8.17884 8.28369 12.5028Z" fill="#7E7EE2"/>
</g>
<defs>
<clipPath id="clip0_1_7164">
<rect width="50" height="44.4444" fill="white"/>
</clipPath>
</defs>
</svg>
